<svg height="60" viewBox="0 0 60 60" width="60" xmlns="http://www.w3.org/2000/svg"><path d="m60 30.0001365c0 16.5684495-13.431414 29.9998635-29.9998635 29.9998635-16.5687225 0-30.0001365-13.431414-30.0001365-29.9998635 0-16.5687225 13.431414-30.0001365 30.0001365-30.0001365 16.5684495 0 29.9998635 13.431414 29.9998635 30.0001365zm-55.19986898 0c0 13.9175412 11.28219128 25.2000054 25.20000548 25.2000054 13.9175412 0 25.2000054-11.2824642 25.2000054-25.2000054 0-13.9178142-11.2824642-25.20000548-25.2000054-25.20000548-13.9178142 0-25.20000548 11.28219128-25.20000548 25.20000548zm7.08064358-4.2408527v-3.9111269h14.3919316v3.9111269h-4.8558132v12.3925593h-4.7460866v-12.3925593zm22.6096926-3.9111269 2.9664405 9.3824465 2.9222224-9.3824465h6.7678408v16.3036862h-4.3287432v-11.8212711l-3.5374558 11.8212711h-3.6916736l-3.5374558-11.8212711v11.8212711h-4.3287432v-16.3036862z" fill="#fffffe" fill-rule="evenodd" transform=""/></svg>