<?xml version="1.0" encoding="UTF-8"?>
<svg width="75px" height="14px" viewBox="0 0 75 14" version="1.1" xmlns="http://www.w3.org/2000/svg" xmlns:xlink="http://www.w3.org/1999/xlink">
    <!-- Generator: Sketch 61 (89581) - https://sketch.com -->
    <title>logo</title>
    <desc>Created with Sketch.</desc>
    <g id="Page-1" stroke="none" stroke-width="1" fill="none" fill-rule="evenodd">
        <g id="logo" fill="#FFFFFF" fill-rule="nonzero">
            <g id="path-1-link">
                <path d="M4.045,13.25 C5.545,13.25 7.27,12.14 7.54,8.99 L7.96,4.265 C8.185,1.64 9.145,1.355 9.145,0.89 C9.145,0.815 9.115,0.77 9.04,0.77 C7.975,0.77 6.25,4.505 6.25,6.815 L6.25,10.475 C6.25,12.11 4.87,12.695 4.33,12.695 C3.355,12.695 3.175,11.78 2.2,11.78 C1.3,11.78 0.715,12.41 0.715,13.01 C0.715,13.085 0.775,13.13 0.88,13.13 C1.075,13.13 1,12.905 1.885,12.905 C2.32,12.905 2.905,13.25 4.045,13.25 Z M5.125,11 C5.335,11 5.5,10.835 5.5,10.625 L5.455,6.65 C5.41,2.855 6.715,1.805 6.715,1.34 C6.715,1.085 6.31,1.055 6.085,1.055 C5.905,1.055 5.08,1.115 4.48,1.115 C3.925,1.115 3.235,0.815 2.305,0.815 C1.705,0.815 0.46,1.22 0.46,2.48 C0.46,3.635 1.285,3.83 1.6,3.83 C1.795,3.83 2.23,3.665 2.23,3.245 C2.23,2.825 1.975,2.63 1.6,2.57 C1.39,2.54 1.21,2.375 1.21,2.15 C1.21,1.61 1.525,1.325 2.08,1.325 C2.575,1.325 2.965,1.94 3.94,1.94 C4.135,1.94 4.48,1.88 4.585,1.88 C4.96,1.88 4.975,2.09 4.975,2.195 C4.975,2.495 4.795,2.66 4.72,2.765 C4.255,3.305 3.88,5.375 3.835,5.435 C3.805,5.51 3.745,5.57 3.64,5.57 C3.1,5.57 2.995,5.21 2.38,5.21 C1.48,5.21 1.225,5.6 1.225,5.675 C1.225,5.84 1.555,5.84 1.66,5.84 C2.815,5.84 3.64,6.665 3.64,7.145 C3.64,7.85 3.355,7.37 2.605,7.37 C2.05,7.37 1.72,7.595 1.72,7.73 C1.72,8.135 4.75,7.73 4.75,10.625 C4.75,10.835 4.915,11 5.125,11 Z M14.47,10.955 L16.03,9.995 C16.135,9.935 16.15,9.875 16.15,9.83 C16.15,9.8 16.135,9.77 16.09,9.725 C16.06,9.695 16.03,9.665 15.985,9.665 C15.955,9.665 15.895,9.695 15.82,9.74 C15.73,9.8 15.595,9.845 15.49,9.845 C15.175,9.845 14.92,9.59 14.92,9.275 L14.92,5.57 C14.92,5.345 14.905,5.105 15.145,4.865 L15.235,4.775 C15.28,4.73 15.295,4.67 15.295,4.595 C15.295,4.52 15.25,4.445 15.16,4.4 L14.26,3.935 C14.185,3.89 14.11,3.86 14.05,3.86 C13.99,3.86 13.915,3.89 13.84,3.935 L12.955,4.4 C12.865,4.445 12.82,4.52 12.82,4.595 C12.82,4.67 12.835,4.73 12.88,4.775 L12.97,4.865 C13.18,5.075 13.1947656,5.285 13.1951758,5.44475586 L13.195,9.035 C13.195,9.215 13.15,9.38 13.015,9.455 L12.565,9.695 C12.49,9.74 12.355,9.785 12.25,9.785 C11.965,9.785 11.755,9.575 11.755,9.32 L11.755,5.57 C11.755,5.165 11.92,4.925 11.95,4.895 L12.01,4.82 C12.085,4.73 12.115,4.685 12.115,4.625 C12.115,4.535 12.07,4.475 11.995,4.445 L10.96,3.92 C10.93,3.905 10.87,3.875 10.84,3.875 C10.765,3.875 10.75,3.89 10.66,3.935 L9.295,4.655 C9.16,4.73 9.265,4.955 9.325,4.955 C9.415,4.955 9.475,4.91 9.52,4.895 L9.64,4.835 C9.949375,4.6803125 10.0082617,4.82884766 10.0144141,5.57723633 L10.015,9.515 C10.015,9.665 9.925,10.145 9.835,10.295 C9.82,10.325 9.79,10.355 9.79,10.4 C9.79,10.49 9.865,10.55 10,10.595 C10.135,10.64 10.285,10.715 10.63,10.82 C10.975,10.94 11.2,11 11.32,11 L11.47,10.925 L13.21,9.875 L14.125,10.955 C14.17,11.015 14.335,11.045 14.47,10.955 Z M18.67,11 C18.715,11 18.775,10.955 18.85,10.895 L20.11,9.83 C20.215,9.74 20.245,9.695 20.245,9.65 C20.245,9.59 20.14,9.47 20.065,9.47 C20.02,9.47 19.975,9.485 19.885,9.56 L19.525,9.86 C19.45,9.92 19.36,9.98 19.21,9.98 C18.925,9.98 18.76,9.605 18.76,9.365 L18.76,1.91 C18.76,1.565 18.985,1.46 19.18,1.295 C19.225,1.25 19.27,1.175 19.27,1.1 C19.27,0.965 19.15,0.845 19.015,0.845 C18.985,0.845 18.94,0.86 18.91,0.875 L17.665,1.385 L16.63,1.145 C16.57,1.13 16.51,1.115 16.48,1.115 C16.345,1.115 16.225,1.235 16.225,1.37 C16.225,1.445 16.27,1.505 16.33,1.565 C16.555,1.79 17.155,2.105 17.155,2.96 L17.155,8.975 C17.155,9.74 16.87,9.86 16.765,9.935 C16.705,9.98 16.675,10.01 16.675,10.04 C16.675,10.085 16.78,10.13 17.005,10.205 C17.23,10.28 17.365,10.4 17.71,10.535 C18.055,10.67 18.535,11.015 18.67,11 Z M22.015,2.99 C22.06,2.99 22.105,2.975 22.135,2.945 L23.38,1.76 C23.44,1.715 23.455,1.55 23.32,1.505 L22.765,1.34 C22.555,1.28 22.465,1.385 22.405,1.535 L21.865,2.75 C21.85,2.78 21.85,2.795 21.85,2.825 C21.85,2.915 21.925,2.99 22.015,2.99 Z M22.045,10.94 C22.12,10.94 22.18,10.925 22.27,10.88 L23.725,10.235 C23.86,10.175 23.665,9.875 23.605,9.875 C23.545,9.875 23.485,9.89 23.41,9.92 L23.29,9.98 C22.980625,10.1346875 22.9217383,9.98615234 22.9155859,9.23776367 L22.915,5.765 C22.915,5.465 22.96,5.225 23.11,5.075 L23.185,5 C23.26,4.925 23.29,4.865 23.29,4.805 C23.29,4.73 23.215,4.64 23.08,4.565 L22,3.95 C21.955,3.92 21.85,3.875 21.79,3.875 C21.715,3.875 21.64,3.89 21.55,3.935 L20.71,4.43 C20.605,4.49 20.56,4.55 20.56,4.625 C20.56,4.715 20.59,4.775 20.635,4.805 L20.935,5.03 C21.2283333,5.28333333 21.2609259,5.46555556 21.2645473,5.68201646 L21.265,9.275 C21.265,9.635 21.085,9.845 20.935,9.95 L20.815,10.04 C20.755,10.085 20.725,10.145 20.725,10.22 C20.725,10.295 20.77,10.37 20.86,10.415 L21.805,10.88 C21.88,10.925 21.97,10.94 22.045,10.94 Z M26.935,10.955 C26.98,10.955 27.115,10.895 27.34,10.745 L28.81,9.74 C28.885,9.695 28.915,9.665 28.915,9.62 C28.915,9.515 28.795,9.425 28.765,9.425 C28.72,9.425 28.66,9.44 28.555,9.515 L27.955,9.92 C27.895,9.95 27.85,9.98 27.745,9.98 C27.625,9.98 27.445,9.935 27.28,9.845 C26.905,9.65 26.665,9.575 26.665,9.155 L26.665,6.335 C26.665,5.78 26.8,5.75 26.86,5.75 C26.89,5.75 26.935,5.78 26.995,5.84 L27.67,6.515 C27.715,6.56 27.85,6.71 27.85,6.86 C27.85,7.055 27.745,7.235 27.67,7.325 L27.4,7.655 C27.355,7.7 27.385,7.775 27.325,7.835 C27.31,7.85 27.295,7.88 27.295,7.91 C27.295,8.015 27.4,8.09 27.415,8.09 C27.43,8.09 27.46,8.075 27.49,8.06 C27.565,8.03 27.64,7.97 27.745,7.835 L28.84,6.29 C28.945,6.155 29.035,6.005 29.035,5.84 C29.035,5.63 28.795,5.42 28.69,5.3 L27.205,3.89 C27.13,3.83 27.07,3.77 27.01,3.77 C26.845,3.77 26.68,3.905 26.59,3.95 L25.315,4.64 C25.24,4.685 25.21,4.73 25.21,4.82 L25.09,8.795 C25.09,8.96 25.075,9.14 25.015,9.35 C24.925,9.695 24.625,9.98 24.625,10.115 C24.625,10.16 24.91,10.22 25.03,10.235 C25.45,10.295 26.125,10.565 26.68,10.88 C26.77,10.925 26.86,10.955 26.935,10.955 Z M35.665,6.935 C35.89,6.935 35.995,6.725 36.085,6.425 L37.33,2.36 C37.45,1.955 37.57,1.97 37.645,1.97 C37.81,1.97 37.915,1.775 38.965,2.45 C39.76,2.96 40.21,2.96 40.255,2.945 C41.47,2.105 41.35,1.04 41.32,0.905 C41.305,0.83 41.23,0.71 41.065,0.695 C40.915,0.725 40.63,1.22 39.895,1.22 C39.235,1.235 38.185,0.53 37.99,0.545 C37.915,0.545 37.735,0.785 37.525,0.965 C36.985,1.505 35.995,2.27 35.77,2.465 C35.56,2.675 35.38,3.05 35.38,3.59 L35.395,6.575 C35.395,6.695 35.41,6.935 35.665,6.935 Z M37.225,11.18 C40.39,11.18 41.995,9.095 41.995,8.6 C41.995,8.54 41.98,8.48 41.965,8.42 C41.935,8.36 41.905,8.33 41.86,8.33 C41.695,8.33 41.545,8.39 41.41,8.495 C39.88,9.695 38.695,9.65 37.915,9.65 C33.595,9.65 32.23,4.34 35.005,1.34 L35.08,1.22 L35.05,1.115 C35.005,1.04 34.96,1.01 34.915,1.01 C34.39,1.01 32.38,3.305 32.38,6.14 C32.38,9.575 34.885,11.18 37.225,11.18 Z M44.68,12.725 C45.625,12.725 48.205,12.065 48.205,9.32 L48.205,5.75 C48.205,4.235 47.38,3.845 47.005,3.845 C46.87,3.845 46.675,3.89 46.465,4.01 L45.1,4.805 L45.1,2.015 C45.1,1.67 45.19,1.565 45.385,1.4 C45.43,1.355 45.475,1.28 45.475,1.205 C45.475,1.07 45.355,0.95 45.22,0.95 C45.19,0.95 45.145,0.965 45.115,0.98 L43.87,1.49 L42.835,1.25 C42.775,1.235 42.715,1.22 42.685,1.22 C42.55,1.22 42.43,1.34 42.43,1.475 C42.43,1.55 42.475,1.61 42.535,1.67 C42.76,1.895 43.36,2.21 43.36,3.065 L43.36,9.275 C43.36,9.635 43.195,9.86 43.06,9.95 L42.925,10.04 C42.865,10.085 42.835,10.145 42.835,10.22 C42.835,10.295 42.88,10.37 42.97,10.415 L44.02,10.925 C44.095,10.97 44.17,10.985 44.245,10.985 C44.32,10.985 44.395,10.97 44.47,10.925 L45.28,10.4 C45.355,10.355 45.385,10.31 45.385,10.22 C45.385,10.16 45.385,10.1 45.325,10.025 L45.265,9.95 C45.1075,9.753125 45.0992969,9.44140625 45.099707,9.31630859 L45.1,5.675 C45.1,5.495 45.16,5.36 45.265,5.255 L45.985,4.865 C46.06,4.805 46.12,4.775 46.18,4.775 C46.42,4.775 46.51,5.06 46.51,5.24 L46.51,9.875 C46.51,10.685 46.435,11.555 44.665,12.365 C44.47,12.455 44.365,12.545 44.365,12.605 C44.365,12.68 44.47,12.725 44.68,12.725 Z M51.175,11.045 C51.235,11.045 51.295,11.015 51.34,10.985 L53.005,9.71 L53.89,10.88 C53.95,10.94 53.995,10.97 54.055,10.97 C54.115,10.97 54.205,10.925 54.31,10.88 L55.615,10.22 C55.735,10.16 55.795,10.055 55.795,9.95 C55.795,9.8 55.66,9.665 55.51,9.665 C55.24,9.665 55.27,9.935 54.88,9.935 C54.64,9.935 54.445,9.74 54.445,9.5 L54.445,5.33 C54.445,4.76 54.475,4.535 54.76,4.34 C54.895,4.25 54.91,4.145 54.91,4.07 C54.91,3.995 54.85,3.86 54.76,3.86 C54.625,3.86 54.52,3.905 54.37,3.965 C53.875,4.145 53.47,4.205 53.29,4.205 C53.005,4.205 52.675,4.205 52.45,4.175 L50.875,3.935 C50.785,3.92 50.47,3.86 50.41,3.86 C50.29,3.86 50.2,3.95 50.2,4.07 C50.2,4.16 50.245,4.235 50.32,4.265 L52.39,5.15 C52.555,5.15 52.69,5.285 52.69,5.45 L52.69,9.02 C52.69,9.2 52.69,9.35 52.51,9.455 L52.03,9.725 C52,9.74 51.925,9.77 51.88,9.725 L51.67,9.53 C51.61,9.446 51.598,9.3716 51.5956,9.2684 L51.595,7.55 C51.595,7.1 51.625,7.055 52,6.71 C52.06,6.65 52.09,6.605 52.09,6.485 C52.09,6.32 51.895,6.23 51.775,6.26 L50.02,6.785 C49.9,6.815 49.855,6.95 49.855,7.07 C49.855,7.28 49.975,7.34 49.975,7.82 L49.975,8.78 C49.975,8.9 49.945,9.02 49.9,9.155 C49.84,9.29 49.75,9.395 49.645,9.455 L49.495,9.545 C49.45,9.59 49.435,9.65 49.435,9.725 C49.435,9.8 49.555,9.845 49.855,10.085 L51.01,10.985 C51.055,11.03 51.1,11.045 51.175,11.045 Z M59.41,10.91 C59.635,10.745 60.325,10.22 61.465,9.8 C61.93,9.62 62.005,9.59 62.005,9.125 L62.005,5.63 C62.005,4.745 61.39,3.89 60.895,3.89 C60.79,3.89 60.64,3.92 60.475,3.98 L59.155,4.625 C58.885,4.76 58.72,4.61 58.72,4.49 L58.705,2.045 C58.705,1.745 58.84,1.625 59.125,1.37 C59.185,1.31 59.2,1.25 59.2,1.19 C59.2,1.055 59.095,0.95 58.96,0.95 L58.9,0.95 L58.9,0.95 L57.37,1.4 L56.38,1.22 C56.17,1.175 56.05,1.325 56.05,1.475 C56.05,1.55 56.08,1.625 56.125,1.67 L56.755,2.315 C56.905,2.465 56.965,2.735 56.965,3.08 L56.965,8.3 C56.965,8.72 56.95,9.08 56.59,9.305 C56.365,9.44 56.245,9.5 56.245,9.605 C56.245,9.71 56.305,9.83 56.83,9.83 C57.475,9.83 58.03,9.995 58.81,10.715 C58.99,10.88 59.125,10.97 59.215,10.97 C59.26,10.97 59.335,10.97 59.41,10.91 Z M59.77,9.785 C59.665,9.785 59.56,9.77 59.515,9.755 L58.915,9.62 C58.615,9.56 58.51,9.35 58.51,9.2 L58.51,5.69 C58.51,5.51 58.615,5.345 58.78,5.27 L59.68,4.85 C59.755,4.82 59.815,4.82 59.845,4.82 C60.01,4.82 60.04,4.94 60.04,5.285 L60.04,9.32 C60.04,9.68 59.86,9.785 59.77,9.785 Z M64.75,2.99 C64.795,2.99 64.84,2.975 64.87,2.945 L66.115,1.76 C66.175,1.715 66.19,1.55 66.055,1.505 L65.5,1.34 C65.29,1.28 65.2,1.385 65.14,1.535 L64.6,2.75 C64.585,2.78 64.585,2.795 64.585,2.825 C64.585,2.915 64.66,2.99 64.75,2.99 Z M64.78,10.94 C64.855,10.94 64.915,10.925 65.005,10.88 L66.46,10.235 C66.595,10.175 66.4,9.875 66.34,9.875 C66.28,9.875 66.22,9.89 66.145,9.92 L66.025,9.98 C65.695,10.145 65.65,9.965 65.65,9.08 L65.65,5.765 C65.65,5.465 65.695,5.225 65.845,5.075 L65.92,5 C65.995,4.925 66.025,4.865 66.025,4.805 C66.025,4.73 65.95,4.64 65.815,4.565 L64.735,3.95 C64.69,3.92 64.585,3.875 64.525,3.875 C64.45,3.875 64.375,3.89 64.285,3.935 L63.445,4.43 C63.34,4.49 63.295,4.55 63.295,4.625 C63.295,4.715 63.325,4.775 63.37,4.805 L63.67,5.03 C64,5.315 64,5.51 64,5.765 L64,9.275 C64,9.635 63.82,9.845 63.67,9.95 L63.55,10.04 C63.49,10.085 63.46,10.145 63.46,10.22 C63.46,10.295 63.505,10.37 63.595,10.415 L64.54,10.88 C64.615,10.925 64.705,10.94 64.78,10.94 Z M68.98,10.955 C69.055,10.955 69.13,10.94 69.22,10.895 L70.255,10.415 C70.33,10.385 70.375,10.325 70.375,10.235 C70.375,10.175 70.33,10.115 70.24,10.04 L70.135,9.965 C69.895,9.8 69.85,9.515 69.85,9.29 L69.85,5.825 C69.85,5.63 69.88,5.45 70,5.405 L70.75,5.135 C70.87,5.09 70.945,5.075 70.99,5.075 C71.23,5.075 71.29,5.33 71.29,5.51 L71.29,9.005 C71.29,10.205 71.905,10.91 72.25,10.91 C72.34,10.91 72.43,10.88 72.505,10.835 L73.99,9.935 C74.035,9.905 74.065,9.86 74.065,9.815 C74.065,9.71 73.945,9.59 73.885,9.59 C73.81,9.59 73.63,9.8 73.42,9.8 C73.21,9.8 73.015,9.62 73.015,8.87 L73.015,5.78 C73.015,5.36 73.465,4.82 73.465,4.64 C73.465,4.505 73.3,4.43 72.955,4.43 C72.43,4.43 71.845,3.875 71.59,3.875 C71.53,3.875 71.425,3.92 71.26,4.025 L69.985,4.88 L69.115,4.13 C68.92,3.965 68.86,3.89 68.695,3.89 C68.635,3.89 68.575,3.95 68.47,4.01 L67,4.955 C66.895,5.015 66.88,5.075 66.88,5.12 C66.88,5.15 66.895,5.18 66.94,5.225 C66.97,5.255 67,5.285 67.045,5.285 C67.075,5.285 67.135,5.255 67.21,5.21 C67.3,5.15 67.405,5.105 67.495,5.105 C67.615,5.105 67.72,5.15 67.825,5.285 C68.02,5.54 68.095,5.855 68.11,6.47 L68.155,9.29 C68.155,9.65 67.915,9.875 67.795,9.965 L67.675,10.055 C67.615,10.1 67.585,10.16 67.585,10.235 C67.585,10.31 67.63,10.385 67.735,10.43 L68.725,10.895 C68.815,10.94 68.905,10.955 68.98,10.955 Z" id="JulieChabin"></path>
            </g>
        </g>
    </g>
</svg>