<?xml version="1.0" encoding="UTF-8"?>
<svg width="85px" height="15px" viewBox="0 0 85 15" version="1.1" xmlns="http://www.w3.org/2000/svg" xmlns:xlink="http://www.w3.org/1999/xlink">
    <!-- Generator: Sketch 54.1 (76490) - https://sketchapp.com -->
    <title>JulieDelanoy</title>
    <desc>Created with Sketch.</desc>
    <defs>
        <path d="M8.688,5.216 C8.688,5.712 7.664,6.016 7.424,8.816 L6.976,13.856 C6.688,17.216 4.848,18.4 3.248,18.4 C2.032,18.4 1.408,18.032 0.944,18.032 C2.22044605e-16,18.032 0.08,18.272 -0.128,18.272 C-0.24,18.272 -0.304,18.224 -0.304,18.144 C-0.304,17.504 0.32,16.832 1.28,16.832 C2.32,16.832 2.512,17.808 3.552,17.808 C4.128,17.808 5.6,17.184 5.6,15.44 L5.6,11.536 C5.6,9.072 7.44,5.088 8.576,5.088 C8.656,5.088 8.688,5.136 8.688,5.216 Z M6.096,5.696 C6.096,6.192 4.704,7.312 4.752,11.36 L4.8,15.6 C4.8,15.824 4.624,16 4.4,16 C4.176,16 4,15.824 4,15.6 C4,12.512 0.768,12.944 0.768,12.512 C0.768,12.368 1.12,12.128 1.712,12.128 C2.512,12.128 2.816,12.64 2.816,11.888 C2.816,11.376 1.936,10.496 0.704,10.496 C0.592,10.496 0.24,10.496 0.24,10.32 C0.24,10.24 0.512,9.824 1.472,9.824 C2.128,9.824 2.24,10.208 2.816,10.208 C2.928,10.208 2.992,10.144 3.024,10.064 C3.072,10 3.472,7.792 3.968,7.216 C4.048,7.104 4.24,6.928 4.24,6.608 C4.24,6.496 4.224,6.272 3.824,6.272 C3.712,6.272 3.344,6.336 3.136,6.336 C2.096,6.336 1.68,5.68 1.152,5.68 C0.56,5.68 0.224,5.984 0.224,6.56 C0.224,6.8 0.416,6.976 0.64,7.008 C1.04,7.072 1.312,7.28 1.312,7.728 C1.312,8.176 0.848,8.352 0.64,8.352 C0.304,8.352 -0.576,8.144 -0.576,6.912 C-0.576,5.568 0.752,5.136 1.392,5.136 C2.384,5.136 3.12,5.456 3.712,5.456 C4.352,5.456 5.232,5.392 5.424,5.392 C5.664,5.392 6.096,5.424 6.096,5.696 Z M16.16,14.752 C16.16,14.8 16.144,14.864 16.032,14.928 L14.368,15.952 C14.224,16.048 14.048,16.016 14,15.952 L13.024,14.8 L11.168,15.92 L11.008,16 C10.88,16 10.64,15.936 10.272,15.808 C9.904,15.696 9.744,15.616 9.6,15.568 C9.456,15.52 9.376,15.456 9.376,15.36 C9.376,15.312 9.408,15.28 9.424,15.248 C9.52,15.088 9.616,14.576 9.616,14.416 L9.616,10.384 C9.616,9.44 9.568,9.248 9.216,9.424 L9.088,9.488 C9.04,9.504 8.976,9.552 8.88,9.552 C8.816,9.552 8.704,9.312 8.848,9.232 L10.304,8.464 C10.4,8.416 10.416,8.4 10.496,8.4 C10.528,8.4 10.592,8.432 10.624,8.448 L11.728,9.008 C11.808,9.04 11.856,9.104 11.856,9.2 C11.856,9.264 11.824,9.312 11.744,9.408 L11.68,9.488 C11.648,9.52 11.472,9.776 11.472,10.208 L11.472,14.208 C11.472,14.48 11.696,14.704 12,14.704 C12.112,14.704 12.256,14.656 12.336,14.608 L12.816,14.352 C12.96,14.272 13.008,14.096 13.008,13.904 L13.008,10.144 C13.008,9.968 13.024,9.712 12.768,9.456 L12.672,9.36 C12.624,9.312 12.608,9.248 12.608,9.168 C12.608,9.088 12.656,9.008 12.752,8.96 L13.696,8.464 C13.776,8.416 13.856,8.384 13.92,8.384 C13.984,8.384 14.064,8.416 14.144,8.464 L15.104,8.96 C15.2,9.008 15.248,9.088 15.248,9.168 C15.248,9.248 15.232,9.312 15.184,9.36 L15.088,9.456 C14.832,9.712 14.848,9.968 14.848,10.208 L14.848,14.16 C14.848,14.496 15.12,14.768 15.456,14.768 C15.568,14.768 15.712,14.72 15.808,14.656 C15.888,14.608 15.952,14.576 15.984,14.576 C16.032,14.576 16.064,14.608 16.096,14.64 C16.144,14.688 16.16,14.72 16.16,14.752 Z M20.528,14.56 C20.528,14.608 20.496,14.656 20.384,14.752 L19.04,15.888 C18.96,15.952 18.896,16 18.848,16 C18.704,16.016 18.192,15.648 17.824,15.504 C17.456,15.36 17.312,15.232 17.072,15.152 C16.832,15.072 16.72,15.024 16.72,14.976 C16.72,14.944 16.752,14.912 16.816,14.864 C16.928,14.784 17.232,14.656 17.232,13.84 L17.232,7.424 C17.232,6.512 16.592,6.176 16.352,5.936 C16.288,5.872 16.24,5.808 16.24,5.728 C16.24,5.584 16.368,5.456 16.512,5.456 C16.544,5.456 16.608,5.472 16.672,5.488 L17.776,5.744 L19.104,5.2 C19.136,5.184 19.184,5.168 19.216,5.168 C19.36,5.168 19.488,5.296 19.488,5.44 C19.488,5.52 19.44,5.6 19.392,5.648 C19.184,5.824 18.944,5.936 18.944,6.304 L18.944,14.256 C18.944,14.512 19.12,14.912 19.424,14.912 C19.584,14.912 19.68,14.848 19.76,14.784 L20.144,14.464 C20.24,14.384 20.288,14.368 20.336,14.368 C20.416,14.368 20.528,14.496 20.528,14.56 Z M23.872,6.144 L22.544,7.408 C22.512,7.44 22.464,7.456 22.416,7.456 C22.32,7.456 22.24,7.376 22.24,7.28 C22.24,7.248 22.24,7.232 22.256,7.2 L22.832,5.904 C22.896,5.744 22.992,5.632 23.216,5.696 L23.808,5.872 C23.952,5.92 23.936,6.096 23.872,6.144 Z M24.24,15.184 L22.688,15.872 C22.592,15.92 22.528,15.936 22.448,15.936 C22.368,15.936 22.272,15.92 22.192,15.872 L21.184,15.376 C21.088,15.328 21.04,15.248 21.04,15.168 C21.04,15.088 21.072,15.024 21.136,14.976 L21.264,14.88 C21.424,14.768 21.616,14.544 21.616,14.16 L21.616,10.416 C21.616,10.144 21.616,9.936 21.264,9.632 L20.944,9.392 C20.896,9.36 20.864,9.296 20.864,9.2 C20.864,9.12 20.912,9.056 21.024,8.992 L21.92,8.464 C22.016,8.416 22.096,8.4 22.176,8.4 C22.24,8.4 22.352,8.448 22.4,8.48 L23.552,9.136 C23.696,9.216 23.776,9.312 23.776,9.392 C23.776,9.456 23.744,9.52 23.664,9.6 L23.584,9.68 C23.424,9.84 23.376,10.096 23.376,10.416 L23.376,13.952 C23.376,14.896 23.424,15.088 23.776,14.912 L23.904,14.848 C23.984,14.816 24.048,14.8 24.112,14.8 C24.176,14.8 24.384,15.12 24.24,15.184 Z M29.904,10.496 C29.904,10.672 29.808,10.832 29.696,10.976 L28.528,12.624 C28.416,12.768 28.336,12.832 28.256,12.864 C28.224,12.88 28.192,12.896 28.176,12.896 C28.16,12.896 28.048,12.816 28.048,12.704 C28.048,12.672 28.064,12.64 28.08,12.624 C28.144,12.56 28.112,12.48 28.16,12.432 L28.448,12.08 C28.528,11.984 28.64,11.792 28.64,11.584 C28.64,11.424 28.496,11.264 28.448,11.216 L27.728,10.496 C27.664,10.432 27.616,10.4 27.584,10.4 C27.52,10.4 27.376,10.432 27.376,11.024 L27.376,14.032 C27.376,14.48 27.632,14.56 28.032,14.768 C28.208,14.864 28.4,14.912 28.528,14.912 C28.64,14.912 28.688,14.88 28.752,14.848 L29.392,14.416 C29.504,14.336 29.568,14.32 29.616,14.32 C29.648,14.32 29.776,14.416 29.776,14.528 C29.776,14.576 29.744,14.608 29.664,14.656 L28.096,15.728 C27.856,15.888 27.712,15.952 27.664,15.952 C27.584,15.952 27.488,15.92 27.392,15.872 C26.8,15.536 26.08,15.248 25.632,15.184 C25.504,15.168 25.2,15.104 25.2,15.056 C25.2,14.912 25.52,14.608 25.616,14.24 C25.68,14.016 25.696,13.824 25.696,13.648 L25.824,9.408 C25.824,9.312 25.856,9.264 25.936,9.216 L27.296,8.48 C27.392,8.432 27.568,8.288 27.744,8.288 C27.808,8.288 27.872,8.352 27.952,8.416 L29.536,9.92 C29.648,10.048 29.904,10.272 29.904,10.496 Z M43.888,7.648 L43.664,14.416 C43.648,14.752 43.424,15.056 42.96,15.36 C42.496,15.664 42.272,15.936 42.064,16.112 C41.984,16.192 41.824,16.208 41.712,16.096 C41.664,16.048 40.704,14.992 38.4,14.992 C35.76,14.992 34.512,16.08 34.192,16.08 C34.064,16.08 33.824,16.112 33.824,15.968 C33.824,15.696 36.064,13.488 38.304,13.488 C38.864,13.488 40.048,13.152 42.72,14.688 L42.72,13.888 L42.24,9.184 C42.112,7.92 41.824,6.576 38.32,6.576 L37.968,6.576 C34.128,6.576 33.056,6.192 33.056,5.136 C33.056,4.944 33.248,4.304 33.504,4.304 C33.6,4.304 33.76,4.352 33.92,4.496 C34.304,4.816 37.152,5.008 38.432,5.008 C42.032,5.008 43.936,6.032 43.888,7.648 Z M37.888,7.44 C37.888,7.504 37.872,7.584 37.824,7.68 L35.408,13.104 C35.056,13.904 34.368,13.984 34.16,13.984 C34.064,13.984 34.016,13.936 34.016,13.856 C34.016,13.776 34.576,12.736 34.656,12.56 C34.752,12.352 34.8,12.112 34.8,11.824 C34.8,11.52 34.784,11.328 34.752,11.248 C34.72,11.168 34.672,11.104 34.592,11.072 C34.512,11.04 34.368,10.992 34.16,10.944 C33.936,10.896 33.824,10.848 33.824,10.768 C33.824,10.592 34.032,10.352 34.368,10.352 C34.608,10.352 35.6,10.304 35.68,10.032 C35.712,9.952 35.76,9.872 35.792,9.76 C36,9.008 36.08,8.768 36.352,8.272 C36.656,7.776 36.832,7.728 37.008,7.664 C37.168,7.6 37.456,7.456 37.552,7.312 C37.6,7.248 37.632,7.232 37.664,7.232 C37.728,7.232 37.888,7.264 37.888,7.44 Z M50.16,10.496 C50.16,10.672 50.064,10.832 49.952,10.976 L48.784,12.624 C48.672,12.768 48.592,12.832 48.512,12.864 C48.48,12.88 48.448,12.896 48.432,12.896 C48.416,12.896 48.304,12.816 48.304,12.704 C48.304,12.672 48.32,12.64 48.336,12.624 C48.4,12.56 48.368,12.48 48.416,12.432 L48.704,12.08 C48.784,11.984 48.896,11.792 48.896,11.584 C48.896,11.424 48.752,11.264 48.704,11.216 L47.984,10.496 C47.92,10.432 47.872,10.4 47.84,10.4 C47.776,10.4 47.632,10.432 47.632,11.024 L47.632,14.032 C47.632,14.48 47.888,14.56 48.288,14.768 C48.464,14.864 48.656,14.912 48.784,14.912 C48.896,14.912 48.944,14.88 49.008,14.848 L49.648,14.416 C49.76,14.336 49.824,14.32 49.872,14.32 C49.904,14.32 50.032,14.416 50.032,14.528 C50.032,14.576 50,14.608 49.92,14.656 L48.352,15.728 C48.112,15.888 47.968,15.952 47.92,15.952 C47.84,15.952 47.744,15.92 47.648,15.872 C47.056,15.536 46.336,15.248 45.888,15.184 C45.76,15.168 45.456,15.104 45.456,15.056 C45.456,14.912 45.776,14.608 45.872,14.24 C45.936,14.016 45.952,13.824 45.952,13.648 L46.08,9.408 C46.08,9.312 46.112,9.264 46.192,9.216 L47.552,8.48 C47.648,8.432 47.824,8.288 48,8.288 C48.064,8.288 48.128,8.352 48.208,8.416 L49.792,9.92 C49.904,10.048 50.16,10.272 50.16,10.496 Z M54.976,14.56 C54.976,14.608 54.944,14.656 54.832,14.752 L53.488,15.888 C53.408,15.952 53.344,16 53.296,16 C53.152,16.016 52.64,15.648 52.272,15.504 C51.904,15.36 51.76,15.232 51.52,15.152 C51.28,15.072 51.168,15.024 51.168,14.976 C51.168,14.944 51.2,14.912 51.264,14.864 C51.376,14.784 51.68,14.656 51.68,13.84 L51.68,7.424 C51.68,6.512 51.04,6.176 50.8,5.936 C50.736,5.872 50.688,5.808 50.688,5.728 C50.688,5.584 50.816,5.456 50.96,5.456 C50.992,5.456 51.056,5.472 51.12,5.488 L52.224,5.744 L53.552,5.2 C53.584,5.184 53.632,5.168 53.664,5.168 C53.808,5.168 53.936,5.296 53.936,5.44 C53.936,5.52 53.888,5.6 53.84,5.648 C53.632,5.824 53.392,5.936 53.392,6.304 L53.392,14.256 C53.392,14.512 53.568,14.912 53.872,14.912 C54.032,14.912 54.128,14.848 54.208,14.784 L54.592,14.464 C54.688,14.384 54.736,14.368 54.784,14.368 C54.864,14.368 54.976,14.496 54.976,14.56 Z M61.92,14.88 C61.92,14.992 61.856,15.104 61.728,15.168 L60.336,15.872 C60.224,15.92 60.128,15.968 60.064,15.968 C60,15.968 59.952,15.936 59.888,15.872 L58.944,14.624 L57.168,15.984 C57.12,16.016 57.056,16.048 56.992,16.048 C56.912,16.048 56.864,16.032 56.816,15.984 L55.584,15.024 C55.264,14.768 55.136,14.72 55.136,14.64 C55.136,14.56 55.152,14.496 55.2,14.448 L55.36,14.352 C55.472,14.288 55.568,14.176 55.632,14.032 C55.68,13.888 55.712,13.76 55.712,13.632 L55.712,12.608 C55.712,12.096 55.584,12.032 55.584,11.808 C55.584,11.68 55.632,11.536 55.76,11.504 L57.632,10.944 C57.76,10.912 57.968,11.008 57.968,11.184 C57.968,11.312 57.936,11.36 57.872,11.424 C57.472,11.792 57.44,11.84 57.44,12.32 L57.44,14.064 C57.44,14.224 57.44,14.32 57.52,14.432 L57.744,14.64 C57.792,14.688 57.872,14.656 57.904,14.64 L58.416,14.352 C58.608,14.24 58.608,14.08 58.608,13.888 L58.608,10.08 C58.608,9.904 58.464,9.76 58.288,9.76 L56.08,8.816 C56,8.784 55.952,8.704 55.952,8.608 C55.952,8.48 56.048,8.384 56.176,8.384 C56.24,8.384 56.576,8.448 56.672,8.464 L58.352,8.72 C58.592,8.752 58.944,8.752 59.248,8.752 C59.44,8.752 59.872,8.688 60.4,8.496 C60.56,8.432 60.672,8.384 60.816,8.384 C60.912,8.384 60.976,8.528 60.976,8.608 C60.976,8.688 60.96,8.8 60.816,8.896 C60.512,9.104 60.48,9.344 60.48,9.952 L60.48,14.4 C60.48,14.656 60.688,14.864 60.944,14.864 C61.36,14.864 61.328,14.576 61.616,14.576 C61.776,14.576 61.92,14.72 61.92,14.88 Z M69.68,14.736 C69.68,14.784 69.648,14.832 69.6,14.864 L68.016,15.824 C67.936,15.872 67.84,15.904 67.744,15.904 C67.376,15.904 66.72,15.152 66.72,13.872 L66.72,10.144 C66.72,9.952 66.656,9.68 66.4,9.68 C66.352,9.68 66.272,9.696 66.144,9.744 L65.344,10.032 C65.216,10.08 65.184,10.272 65.184,10.48 L65.184,14.176 C65.184,14.416 65.232,14.72 65.488,14.896 L65.6,14.976 C65.696,15.056 65.744,15.12 65.744,15.184 C65.744,15.28 65.696,15.344 65.616,15.376 L64.512,15.888 C64.416,15.936 64.336,15.952 64.256,15.952 C64.176,15.952 64.08,15.936 63.984,15.888 L62.928,15.392 C62.816,15.344 62.768,15.264 62.768,15.184 C62.768,15.104 62.8,15.04 62.864,14.992 L62.992,14.896 C63.12,14.8 63.376,14.56 63.376,14.176 L63.328,11.168 C63.312,10.512 63.232,10.176 63.024,9.904 C62.912,9.76 62.8,9.712 62.672,9.712 C62.576,9.712 62.464,9.76 62.368,9.824 C62.288,9.872 62.224,9.904 62.192,9.904 C62.144,9.904 62.112,9.872 62.08,9.84 C62.032,9.792 62.016,9.76 62.016,9.728 C62.016,9.68 62.032,9.616 62.144,9.552 L63.712,8.544 C63.824,8.48 63.888,8.416 63.952,8.416 C64.128,8.416 64.192,8.496 64.4,8.672 L65.328,9.472 L66.688,8.56 C66.864,8.448 66.976,8.4 67.04,8.4 C67.312,8.4 67.936,8.992 68.496,8.992 C68.864,8.992 69.04,9.072 69.04,9.216 C69.04,9.408 68.56,9.984 68.56,10.432 L68.56,13.728 C68.56,14.528 68.768,14.72 68.992,14.72 C69.216,14.72 69.408,14.496 69.488,14.496 C69.552,14.496 69.68,14.624 69.68,14.736 Z M76.016,14.192 C76.016,14.32 75.84,14.464 75.504,14.656 C74.848,15.024 74.608,15.168 73.792,15.936 C73.744,15.984 73.68,16 73.632,16 C73.552,16 73.44,15.92 73.28,15.76 C73.12,15.6 72.864,15.408 72.512,15.2 C72.16,14.992 71.776,14.784 71.072,14.784 L70.816,14.784 C70.736,14.784 70.656,14.768 70.576,14.752 C70.496,14.736 70.448,14.656 70.448,14.544 C70.448,14.464 70.48,14.432 70.544,14.432 C70.624,14.432 70.72,14.368 70.832,14.24 C70.944,14.112 70.992,13.856 70.992,13.456 L70.944,10 C70.944,9.808 70.96,9.312 71.392,9.264 L72.768,8.576 C72.96,8.48 73.008,8.4 73.088,8.4 C73.152,8.4 73.216,8.416 73.264,8.448 C73.52,8.592 74.4,9.168 75.712,9.376 C75.872,9.408 76.016,9.552 76.016,9.824 L76.016,14.192 Z M74,10.08 C74,9.936 73.92,9.808 73.808,9.744 L73.312,9.44 C73.248,9.408 73.184,9.392 73.104,9.392 C72.88,9.392 72.704,9.568 72.704,9.792 L72.64,14 C72.64,14.144 72.72,14.272 72.832,14.336 L73.328,14.64 C73.392,14.672 73.456,14.688 73.536,14.688 C73.76,14.688 73.936,14.512 73.936,14.288 L74,10.08 Z M83.296,10.32 C83.296,11.712 82.928,13.616 80.752,14.944 C79.68,15.6 78.352,16.16 78.352,17.232 C78.352,17.776 78.784,18.208 79.328,18.208 C80.272,18.208 80.512,16.864 81.456,16.864 C81.696,16.864 82.032,17.104 82.032,17.44 C82.032,18.24 80.944,18.672 79.808,18.672 C78.672,18.672 77.744,18.016 77.744,17.216 C77.744,16.288 78.24,16.256 78.256,15.28 C78.272,14.976 78.32,14.704 78.32,14.256 L78.32,11.184 C78.32,10.88 78,10.048 77.664,10.048 C77.568,10.048 77.504,10.224 77.408,10.224 C77.264,10.224 77.04,10.064 77.04,9.952 C77.04,9.792 77.184,9.744 77.232,9.664 C77.312,9.52 77.872,9.12 78.608,8.48 C78.752,8.352 78.896,8.368 78.944,8.368 C79.136,8.368 80.16,9.152 80.16,10.4 L80.16,13.76 C80.16,14.048 80.384,14.272 80.672,14.272 C81.088,14.272 82.08,13.024 82.08,11.488 C82.08,10.528 81.808,10.464 81.632,10.208 C81.504,10.032 81.456,9.904 81.28,9.904 C81.104,9.904 80.944,10.08 80.864,10.08 C80.784,10.08 80.576,9.888 80.576,9.776 C80.576,9.712 80.656,9.648 80.704,9.6 C80.752,9.552 81.968,8.496 82.096,8.432 C82.16,8.4 82.224,8.368 82.272,8.368 C82.656,8.368 83.296,9.6 83.296,10.32 Z" id="path-1"></path>
    </defs>
    <g id="Page-1" stroke="none" stroke-width="1" fill="none" fill-rule="evenodd">
        <g id="logo" transform="translate(1.000000, -4.000000)" fill-rule="nonzero">
            <g id="JulieDelanoy">
                <use fill="#000000" xlink:href="#path-1"></use>
                <use fill="#FFFFFF" xlink:href="#path-1"></use>
            </g>
        </g>
    </g>
</svg>